# xmcd
#
# Track frame offsets:
# 182
# 17287
# 29717
# 40727
# 53077
# 68062
# 84897
# 95242
# 107277
# 119210
# 131625
# 141802
# 154025
# 164530
# 176350
# 188190
#
# Disc length: 2654 seconds
#
# Revision: 0
# Processed by: cddbd v1.4PL0 Copyright (c) Steve Scherf et al.
# Submitted via: Audion 3.0.2 (http://www.panic.com/audion/)
#
DISCID=d20a5c10
DTITLE=d'marlemer winnwages - Alsace
DYEAR=1900
DGENRE=
TTITLE0=Polka
TTITLE1=Valse
TTITLE2=Polka
TTITLE3=La danse des maraichers
TTITLE4=Trombone parade
TTITLE5=Maienabend
TTITLE6=Immer wieder polka
TTITLE7=Souvenir
TTITLE8=HHeimatsbilder
TTITLE9=Ile des pêcheurs valse
TTITLE10=Polka
TTITLE11=Valse  
TTITLE12=Marche
TTITLE13=Plka
TTITLE14=plka
TTITLE15=valse
EXTD=
EXTT0=
EXTT1=
EXTT2=
EXTT3=
EXTT4=
EXTT5=
EXTT6=
EXTT7=
EXTT8=
EXTT9=
EXTT10=
EXTT11=
EXTT12=
EXTT13=
EXTT14=
EXTT15=
PLAYORDER=
